<?xml version="1.0" standalone="no"?>
<!DOCTYPE svg PUBLIC "-//W3C//DTD SVG 1.1//EN" "http://www.w3.org/Graphics/SVG/1.1/DTD/svg11.dtd" >
<svg xmlns="http://www.w3.org/2000/svg" xmlns:svg="http://www.w3.org/2000/svg" xmlns:xlink="http://www.w3.org/1999/xlink" viewBox="0 0 1024 1024"><path d="M265.74 485.7Q235.97 493.67 253.51 461.57Q266.5 482.88 290.41 484.4Q306.26 469.42 359.54 462.33Q392.58 477.64 526.6 462.39Q779.17 483.14 782.05 478.1Q811.41 488 804.35 510.7Q794.87 551.93 814.06 549.62Q783.4 584.05 803.24 667.48Q786.04 719.91 775.64 752.92Q764.38 759.17 766.12 763.08L746.3 765.07H509.05Q348.73 777.49 308.7 765.29Q254.66 783.16 261.34 768.58Q249.68 771.12 252.88 727.01Q248.56 706.39 245.68 615.23Q247.06 569.56 229.5 539.57Q238.29 524.77 253.92 517.92ZM131.73 174.46Q123.25 174.12 163.57 171.54Q172.43 125.26 165.71 154.09Q190.69 138.42 229.92 149.81Q228.25 129.24 236.29 139.41H342.87V105.81Q318.44 98.1 340.31 92.9Q344.51 119.67 325.36 92.59Q338.9 96.76 337.05 90.7Q349.58 73.02 360.82 94.35Q367.71 92.79 369.66 89.3Q384.91 62.98 360.28 92.58Q368.21 86.45 385.41 92.35Q399.84 109.77 395.64 96.52Q413.44 129.97 408.9 132.59V127.84L505.18 130.98Q542.68 156.49 589.14 129.94Q619.78 135.98 593.8 154Q587.76 132.74 622.91 144.96Q599.66 117.88 596.57 118.11Q619.11 88.34 634.66 88.6Q646.61 98.18 630.99 88.03Q683.32 90.97 665.36 86.23Q673.12 88.9 671.35 120.02V133.13L765.79 135.36Q839.6 148.02 846.23 155.04Q839.79 160.35 875.01 158.93Q867.41 193 845.75 181.66Q873.37 163.3 876.15 173.86Q845.04 208.22 837.41 207.41Q835.22 210.53 746.69 214.6H691.04V250.8Q671.21 279.05 680.97 277.64Q671.37 301.07 696.91 301.55Q674.9 292.4 698.76 302.14Q673.42 330.19 684.1 328.25Q679.13 337.46 652.35 341.53Q671.87 335.73 648.69 327.05Q584.27 333.47 591.49 332.64Q551.89 325.21 502.12 320.62Q414.98 320.05 392.34 316.88Q370.49 319.17 356.01 280Q352.36 236.15 329.45 213.94Q311.31 226.16 278.41 210.46Q280.16 213.71 266.73 210.13Q207.93 189.12 179.38 214.8Q135.42 216.38 125.59 178.96Q145.69 163.74 130.91 158.87Q136.83 155.4 132.88 157.95ZM103.2 402.24Q131.35 367.25 101.91 369.88Q103.19 386.37 112.98 369.02Q129.02 373.06 126.7 360.55Q169.52 352.8 162 352.23Q156.67 335.18 206.2 363.94Q222.96 373.56 348.71 374.47Q444.02 379.2 581.68 351.9H892.02L899.97 374.41Q910.64 375.85 907.15 384.34Q896.14 404.38 902.49 391.4Q892.43 428.98 909.88 450.18L870.72 464.81L495.07 431.95Q361.86 456.61 268.81 446.15Q145.57 434.87 127.73 446.98Q139.81 407.66 126.52 400.23Q113.15 389.13 108.71 376.12Q110.56 383.17 116.62 382.47ZM659.35 826.63Q681.48 820.8 683.59 822.21Q704 828.44 686.61 799.19Q714.11 816.48 698.71 819.41Q740.8 813.6 752.05 808.66Q739.06 827.29 751.5 832.57Q763.88 832.67 811.9 848.45Q838.24 843.17 871.17 888.16Q892.8 886.78 886.82 910.99Q892.88 896.95 874.82 892.05Q879.23 903.5 875.14 914.09Q855.94 935.85 856.98 934.37Q853.48 934.07 806.13 926.08Q819.55 920.12 788.21 925Q764 920.51 739.98 880.14Q696.14 889.78 717.52 875.84Q679.13 880.87 678.42 875.01Q663.21 869.62 682.1 857.53Q687.52 835.85 668.14 849.89ZM181.52 890.88Q204.29 876.9 255.71 855.18Q238.62 849.62 260.61 818.49Q301.13 841.75 321.92 806.21Q334.54 789.04 373.97 801.75Q350.61 804.2 362.11 795.89Q370.29 799.81 397.09 828.07Q381.88 810.82 390.79 847.46Q373.46 834.68 392.22 847.71Q374.48 882.06 326.72 879.07Q251.08 930.34 254.87 929.35Q226.06 953.88 218.44 940.34Q202.31 953.6 219.09 934.21Q203.03 914.18 197.03 912.51Q195.3 905.5 200.5 869.06ZM451.17 203.27L444.94 259.22L518.56 248Q549.11 278.13 555.92 254.63Q585.33 275.15 598.29 242.98Q618.58 250.39 624.55 237.56Q620.14 256.11 615.06 269.66Q612.87 239.68 621.2 247.58Q590.44 229.52 587.99 221.21Q589.05 222.34 613.68 223.88Q611.45 225.01 585.34 229.29Q573.16 218.58 518.75 230.36ZM574.69 563.04L549.5 572.05L716.87 593.02L739.83 550.14L655.99 531.42Q625.34 542.12 583.1 534.56Q572.19 529.42 557.42 542.96Q549.7 545.75 571.66 570.87Q536.15 581.32 576.06 592.79ZM321.91 660.97V687.38H489.06V637.66ZM324.99 568.55H496.39V546.61H336.13ZM560.06 688.02L554.57 700.73H618.65Q627.75 720.2 659.83 710.73Q667.54 724.97 677.85 714.89Q686.26 703.67 685.17 705.92Q713.36 721.53 704.93 720.92Q705.59 685.75 718.61 696.8Q716.28 664.53 711.97 668.58Q717.78 652.98 707.57 677.92Q701.12 664.88 640.71 642.52Q629.16 665.47 615.96 661.73Q570.09 657.41 552.36 653.53Q571.76 665.31 562.57 657.85Q553.85 676.43 543.76 684.24Q545.63 675.4 542.97 681.3Z" fill="black"></path></svg>