<?xml version="1.0" standalone="no"?>
<!DOCTYPE svg PUBLIC "-//W3C//DTD SVG 1.1//EN" "http://www.w3.org/Graphics/SVG/1.1/DTD/svg11.dtd" >
<svg xmlns="http://www.w3.org/2000/svg" xmlns:svg="http://www.w3.org/2000/svg" xmlns:xlink="http://www.w3.org/1999/xlink" viewBox="0 0 1024 1024"><path d="M249.5 505.5Q251.5 479.5 258.5 476.5Q260.5 467.5 291.0 466.0Q321.5 464.5 350.5 464.5Q410.5 464.5 528.5 467.5Q783.5 470.5 792.5 478.5Q800.5 485.5 801.0 512.5Q801.5 539.5 801.5 543.5Q801.5 593.5 794.5 674.5Q792.5 721.5 788.0 736.5Q783.5 751.5 773.5 760.5L755.5 775.5H513.5Q355.5 775.5 309.5 773.5Q263.5 771.5 261.5 764.5Q258.5 758.5 255.5 726.5Q252.5 694.5 251.5 620.5Q248.5 561.5 248.5 530.5Q248.5 514.5 249.5 505.5ZM135.5 172.5Q135.5 166.5 146.5 154.5Q152.5 141.5 166.0 139.5Q179.5 137.5 214.5 137.5Q228.5 137.5 245.5 137.5H332.5V121.5Q332.5 114.5 333.0 107.5Q333.5 100.5 333.5 96.5Q333.5 92.5 338.0 88.0Q342.5 83.5 350.5 82.5Q361.5 76.5 369.5 76.5Q371.5 76.5 377.0 77.5Q382.5 78.5 395.5 89.5Q404.5 94.5 409.0 102.5Q413.5 110.5 413.5 121.5V139.5L504.5 141.5Q544.5 143.5 572.5 143.5Q600.5 143.5 603.5 141.5Q607.5 141.5 609.5 135.0Q611.5 128.5 611.5 119.5Q611.5 101.5 621.0 91.0Q630.5 80.5 648.5 80.5Q665.5 80.5 674.5 92.0Q683.5 103.5 684.5 121.5V139.5L765.5 141.5Q827.5 141.5 843.5 147.5Q859.5 153.5 859.5 172.5Q859.5 175.5 859.5 177.5Q859.5 179.5 859.5 181.5Q859.5 200.5 840.5 206.0Q821.5 211.5 758.5 211.5H677.5V247.5Q677.5 262.5 680.5 276.0Q683.5 289.5 686.5 294.5Q690.5 302.5 690.5 309.5Q690.5 313.5 687.5 321.0Q684.5 328.5 670.5 334.5Q661.5 335.5 632.0 336.0Q602.5 336.5 586.5 336.5Q553.5 336.5 513.5 335.5Q400.5 335.5 379.0 327.5Q357.5 319.5 357.5 274.5Q355.5 224.5 341.5 215.5Q327.5 206.5 272.5 206.5Q261.5 206.5 249.5 206.5Q188.5 206.5 169.5 203.5Q150.5 200.5 144.5 191.5Q135.5 180.5 135.5 173.5Q135.5 173.5 135.5 172.5ZM114.5 386.5Q114.5 382.5 118.0 376.5Q121.5 370.5 125.5 364.5Q132.5 357.5 141.5 356.0Q150.5 354.5 157.5 354.5Q172.5 354.5 198.5 357.5Q227.5 357.5 333.0 359.5Q438.5 361.5 569.5 361.5H879.5L895.5 377.5Q909.5 391.5 910.0 398.5Q910.5 405.5 910.5 406.5Q910.5 419.5 897.5 433.5L882.5 447.5L513.5 442.5Q357.5 440.5 249.5 437.0Q141.5 433.5 132.5 431.5Q123.5 425.5 118.5 414.0Q113.5 402.5 113.5 393.5Q113.5 389.5 114.5 386.5ZM676.5 831.5Q679.5 825.5 684.5 820.5Q695.5 809.5 703.0 808.5Q710.5 807.5 713.5 807.5Q723.5 807.5 735.5 812.5Q740.5 816.5 758.5 823.5Q776.5 830.5 798.5 839.5Q850.5 861.5 867.5 872.5Q884.5 883.5 884.5 893.5Q884.5 894.5 884.5 895.5Q884.5 910.5 872.0 926.5Q859.5 942.5 846.5 944.5Q841.5 944.5 821.0 936.5Q800.5 928.5 773.5 915.5Q746.5 902.5 727.5 894.5Q708.5 886.5 704.5 884.5Q697.5 883.5 685.0 868.0Q672.5 852.5 672.5 843.5Q672.5 838.5 676.5 831.5ZM199.5 885.5Q207.5 870.5 238.5 856.5Q252.5 848.5 271.5 838.0Q290.5 827.5 303.5 816.5Q335.5 795.5 357.5 795.5Q360.5 795.5 372.5 797.5Q384.5 799.5 384.5 823.5Q384.5 827.5 384.5 830.5Q384.5 841.5 373.5 853.5Q362.5 865.5 337.5 883.5Q269.5 938.5 253.0 943.0Q236.5 947.5 231.5 947.5Q211.5 947.5 200.5 920.5Q195.5 909.5 195.5 900.5Q195.5 892.5 199.5 885.5ZM431.5 211.5 434.5 260.5 524.5 262.5Q549.5 262.5 566.5 262.5Q592.5 262.5 601.0 262.0Q609.5 261.5 609.5 256.5Q609.5 254.5 607.5 251.5Q603.5 245.5 602.0 238.5Q600.5 231.5 600.5 226.5Q600.5 225.5 600.5 223.5Q600.5 215.5 588.0 213.5Q575.5 211.5 515.5 211.5ZM557.5 573.5 558.5 591.5 724.5 595.5 720.5 544.5 639.5 542.5Q614.5 541.5 597.5 541.5Q571.5 541.5 563.5 544.5Q555.5 547.5 555.5 559.5Q555.5 565.5 557.5 573.5ZM328.5 652.5V704.5H483.5V652.5ZM328.5 587.5H477.5V535.5H328.5ZM558.5 683.5 562.5 704.5H612.5Q634.5 704.5 654.5 705.5Q674.5 706.5 684.5 708.5Q691.5 709.5 696.5 709.5Q703.5 709.5 707.0 707.0Q710.5 704.5 711.5 688.5Q711.5 677.5 711.0 670.5Q710.5 663.5 708.5 661.5Q688.5 658.5 651.0 657.0Q613.5 655.5 599.5 655.5Q571.5 655.5 562.5 658.5Q558.5 659.5 558.0 664.5Q557.5 669.5 557.5 672.5Q557.5 677.5 558.5 683.5Z" fill="black"></path></svg>